<svg id="Layer_5" enable-background="new 0 0 62 62" height="512" viewBox="0 0 62 62" width="512" xmlns="http://www.w3.org/2000/svg"><g><g><g><path d="m3 5h50v48h-50z" fill="#aab2bd"/></g><g><path d="m55 2v2c0 .55-.45 1-1 1h-1-50-1c-.55 0-1-.45-1-1v-2c0-.55.45-1 1-1h52c.55 0 1 .45 1 1z" fill="#969faa"/></g><g><path d="m7 9h26v28h-26z" fill="#e6e9ed"/></g><g><path d="m45 45h4v8h-4z" fill="#e6e9ed"/></g><g><path d="m7 45h4v8h-4z" fill="#e6e9ed"/></g><g><path d="m45 53v3c-2.76 0-5 2.24-5 5h-12c4.97 0 9-4.03 9-9 0-2.83-1.3-5.35-3.34-7h11.34z" fill="#b4dd7f"/></g><g><path d="m28 61h-12c0-2.76-2.24-5-5-5v-3-8h11.34c-2.04 1.65-3.34 4.17-3.34 7 0 4.97 4.03 9 9 9z" fill="#b4dd7f"/></g><g><path d="m45 56v5h-5c0-2.76 2.24-5 5-5z" fill="#a0d468"/></g><g><path d="m16 61h-5v-5c2.76 0 5 2.24 5 5z" fill="#a0d468"/></g><g><path d="m28 45h5.66c2.04 1.65 3.34 4.17 3.34 7 0 4.97-4.03 9-9 9s-9-4.03-9-9c0-2.83 1.3-5.35 3.34-7z" fill="#fcd770"/></g><g><path d="m45 9h4v4h-4z" fill="#ef7385"/></g><g><path d="m37 9h4v4h-4z" fill="#ef7385"/></g><g><path d="m11 25h18v12h-18z" fill="#ef7385"/></g><g><path d="m61 27v8h-8-16v-8z" fill="#fcd770"/></g><g><path d="m61 19v4h-24v-4h16z" fill="#fcd770"/></g><g><path d="m37 23h24v4h-24z" fill="#e6e9ed"/></g><g><path d="m11 13h18v8h-18z" fill="#69d6f4"/></g></g><g><path d="m6 38h28v-30h-28zm22-6h-4v-2h4zm-6 0h-4v-2h4zm0 2v2h-4v-2zm2 0h4v2h-4zm4-6h-4v-2h4zm-6 0h-4v-2h4zm-6 0h-4v-2h4zm-4 2h4v2h-4zm0 4h4v2h-4zm-4-24h24v26h-2v-12h-20v12h-2z"/><path d="m42 8h-6v6h6zm-2 4h-2v-2h2z"/><path d="m50 8h-6v6h6zm-2 4h-2v-2h2z"/><path d="m62 18h-8v-12c1.103 0 2-.897 2-2v-2c0-1.103-.897-2-2-2h-52c-1.103 0-2 .897-2 2v2c0 1.103.897 2 2 2v48h8v8h36v-8h8v-18h8zm-2 4h-22v-2h22zm-22 2h22v2h-22zm-36-22h52l.001 2h-52.001zm6 50v-6h2v6zm4 5.142c1.399.364 2.494 1.459 2.858 2.858h-2.858zm4.91 2.858c-.423-2.507-2.403-4.486-4.91-4.91v-9.09h8.009c-1.29 1.713-2.009 3.802-2.009 6 0 3.273 1.588 6.175 4.025 8zm7.09-11c0 1.654 1.346 3 3 3h2c.551 0 1 .449 1 1s-.449 1-1 1h-2c-.551 0-1-.449-1-1h-2c0 1.654 1.346 3 3 3v2h2v-2c1.654 0 3-1.346 3-3s-1.346-3-3-3h-2c-.551 0-1-.449-1-1s.449-1 1-1h2c.551 0 1 .449 1 1h2c0-1.654-1.346-3-3-3h4.274c1.731 1.522 2.726 3.685 2.726 6 0 4.411-3.589 8-8 8s-8-3.589-8-8c0-2.315.995-4.478 2.726-6h4.274c-1.654 0-3 1.346-3 3zm14 3c0-2.198-.719-4.287-2.009-6h8.009v9.09c-2.507.423-4.486 2.403-4.91 4.91h-5.116c2.438-1.825 4.026-4.727 4.026-8zm3.142 8c.364-1.399 1.459-2.494 2.858-2.858v2.858zm4.858-14h2v6h-2zm4 6v-8h-44v8h-2v-10h48v10zm2-12h-48v-34h48v12h-14v-2h-2v22h2v-2h14zm-14-6v-6h22v6z"/><path d="m56 30h2v2h-2z"/><path d="m52 30h2v2h-2z"/><path d="m48 30h2v2h-2z"/><path d="m30 12h-20v10h20zm-2 8h-16v-6h16z"/></g></g></svg>