<svg id="icon" height="512" viewBox="0 0 128 128" width="512" xmlns="http://www.w3.org/2000/svg"><path d="m5.976 24.894v78.282c0 12.728 18.419 23.044 41.141 23.044s41.14-10.32 41.14-23.044v-78.282z" fill="#ffc943"/><g opacity=".45"><path d="m51.3 30.574h-4.18v90.666c0 1.95-.166 3.687.659 5.5.927.4 2.824-.554 3.81-.194z" fill="#f0f5f9"/></g><g opacity=".45"><path d="m43.618 30.222v-5.188h-12.434v99.38a67.366 67.366 0 0 0 10.282 1.586 13.462 13.462 0 0 1 -1.026-5.107v-90.671z" fill="#f0f5f9"/></g><ellipse cx="47.117" cy="24.043" fill="#ffc943" rx="41.141" ry="23.043"/><g fill="#2f3a5a"><path d="m47.117 48.089c-23.237 0-42.141-10.789-42.141-24.043s18.904-24.046 42.141-24.046 42.14 10.789 42.14 24.046-18.904 24.043-42.14 24.043zm0-46.089c-22.134 0-40.141 9.892-40.141 22.046s18.007 22.043 40.141 22.043 40.14-9.889 40.14-22.043-18.007-22.046-40.14-22.046z"/><path d="m47.117 25.046c-5.7 0-10.163-2.693-10.163-6.132s4.464-6.132 10.163-6.132 10.163 2.693 10.163 6.132a1 1 0 1 1 -2 0c0-1.954-3.352-4.132-8.163-4.132s-8.163 2.178-8.163 4.132 3.352 4.132 8.163 4.132a1 1 0 0 1 0 2z"/><path d="m47.117 35.31c-5.7 0-10.163-2.693-10.163-6.132a1 1 0 0 1 2 0c0 1.954 3.352 4.132 8.163 4.132s8.163-2.178 8.163-4.132-3.352-4.132-8.163-4.132a1 1 0 0 1 0-2c5.7 0 10.163 2.694 10.163 6.132s-4.465 6.132-10.163 6.132z"/><path d="m47.117 38.243a1 1 0 0 1 -1-1v-26a1 1 0 1 1 2 0v26a1 1 0 0 1 -1 1z"/></g><path d="m23.794 9.894c-4.166 1.662-9.673 4.795-12.254 10.278-.221.468.278.948 1.114 1.071a2.753 2.753 0 0 0 .4.03 1.684 1.684 0 0 0 1.512-.653c2.342-4.977 7.3-7.8 11.043-9.3.7-.281.868-.828.367-1.222a2.441 2.441 0 0 0 -2.182-.204z" fill="#fff"/><path d="m32.9 8.151a1.905 1.905 0 0 0 -1.918-.619c-.1.015-1.027.159-2.465.523-.788.2-1.138.719-.782 1.159a1.894 1.894 0 0 0 1.427.516 2.648 2.648 0 0 0 .643-.078c1.211-.306 1.987-.427 1.994-.428.829-.124 1.321-.606 1.101-1.073z" fill="#fff"/><g fill="#2f3a5a"><path d="m47.117 127.216c-1.85 0-3.777-.075-5.727-.224a62.219 62.219 0 0 1 -19.869-4.705c-10.514-4.559-16.545-11.526-16.545-19.114h2c0 6.754 5.592 13.052 15.343 17.28a60.2 60.2 0 0 0 19.224 4.547c1.9.145 3.774.218 5.574.218 22.134 0 40.141-9.889 40.141-22.043h2c-.001 13.256-18.905 24.041-42.141 24.041z"/><path d="m47.117 111.132c-23.236 0-42.141-10.786-42.141-24.043h2c0 12.154 18.007 22.043 40.141 22.043s40.141-9.889 40.141-22.043h2c-.001 13.258-18.905 24.043-42.141 24.043z"/><path d="m47.117 95.052c-23.236 0-42.141-10.786-42.141-24.043h2c0 12.154 18.007 22.043 40.141 22.043s40.141-9.889 40.141-22.043h2c-.001 13.257-18.905 24.043-42.141 24.043z"/><path d="m47.117 78.971c-23.236 0-42.141-10.786-42.141-24.043h2c0 12.154 18.007 22.043 40.141 22.043s40.141-9.889 40.141-22.043h2c-.001 13.257-18.905 24.043-42.141 24.043z"/><path d="m47.117 62.89c-23.237 0-42.141-10.79-42.141-24.043h2c0 12.153 18.007 22.043 40.141 22.043s40.14-9.89 40.14-22.043h2c0 13.253-18.904 24.043-42.14 24.043z"/><path d="m88.257 104.17a1 1 0 0 1 -1-1v-79.124a1 1 0 0 1 2 0v79.124a1 1 0 0 1 -1 1z"/><path d="m5.976 104.17a1 1 0 0 1 -1-1v-79.124a1 1 0 0 1 2 0v79.124a1 1 0 0 1 -1 1z"/></g><circle cx="93.569" cy="98.545" fill="#ffc943" r="28.455"/><path d="m93.569 128a29.455 29.455 0 1 1 29.455-29.455 29.488 29.488 0 0 1 -29.455 29.455zm0-56.91a27.455 27.455 0 1 0 27.455 27.455 27.486 27.486 0 0 0 -27.455-27.455z" fill="#2f3a5a"/><path d="m93.569 99.545a7.337 7.337 0 1 1 7.337-7.337 1 1 0 1 1 -2 0 5.337 5.337 0 1 0 -5.337 5.337 1 1 0 1 1 0 2z" fill="#2f3a5a"/><path d="m93.569 112.22a7.346 7.346 0 0 1 -7.337-7.337 1 1 0 0 1 2 0 5.337 5.337 0 1 0 5.337-5.337 1 1 0 0 1 0-2 7.337 7.337 0 0 1 0 14.675z" fill="#2f3a5a"/><path d="m93.569 115.695a1 1 0 0 1 -1-1v-31.964a1 1 0 0 1 2 0v31.964a1 1 0 0 1 -1 1z" fill="#2f3a5a"/><path d="m79.776 78.911a22.094 22.094 0 0 0 -8.476 12.689 1.082 1.082 0 1 0 2.093.552 19.958 19.958 0 0 1 7.638-11.481 1.082 1.082 0 0 0 -1.256-1.763z" fill="#fff"/><path d="m86.072 77.142a1.081 1.081 0 0 0 -1.326-.764 12.224 12.224 0 0 0 -1.7.646 1.082 1.082 0 1 0 .885 1.976 10.646 10.646 0 0 1 1.379-.529 1.082 1.082 0 0 0 .762-1.329z" fill="#fff"/><path d="m69.459 40.567-2.957-5.407-2.957 5.407-5.407 2.957 5.407 2.957 2.957 5.407 2.957-5.407 5.407-2.957z" fill="#fff"/><path d="m66.5 52.888a1 1 0 0 1 -.877-.52l-2.817-5.15-5.148-2.818a1 1 0 0 1 0-1.755l5.15-2.816 2.817-5.15a1 1 0 0 1 .877-.52 1 1 0 0 1 .877.52l2.821 5.151 5.15 2.816a1 1 0 0 1 0 1.755l-5.15 2.817-2.816 5.15a1 1 0 0 1 -.884.52zm-6.28-9.364 3.8 2.08a1 1 0 0 1 .4.4l2.08 3.8 2.08-3.8a1 1 0 0 1 .4-.4l3.8-2.08-3.8-2.08a1 1 0 0 1 -.4-.4l-2.08-3.8-2.08 3.8a1 1 0 0 1 -.4.4z" fill="#2f3a5a"/><path d="m112.749 73.382-2.957-5.406-2.958 5.406-5.406 2.958 5.406 2.957 2.958 5.407 2.957-5.407 5.407-2.957z" fill="#fff"/><path d="m109.792 85.7a1 1 0 0 1 -.877-.52l-2.816-5.15-5.15-2.817a1 1 0 0 1 0-1.755l5.15-2.816 2.816-5.15a1.041 1.041 0 0 1 1.755 0l2.816 5.15 5.15 2.816a1 1 0 0 1 0 1.755l-5.15 2.817-2.816 5.15a1 1 0 0 1 -.878.52zm-6.28-9.364 3.8 2.08a1 1 0 0 1 .4.4l2.08 3.8 2.08-3.8a1 1 0 0 1 .4-.4l3.8-2.08-3.8-2.08a1 1 0 0 1 -.4-.4l-2.08-3.8-2.08 3.8a1 1 0 0 1 -.4.4z" fill="#2f3a5a"/></svg>