<svg id="Layer_1" enable-background="new 0 0 512 512" height="512" viewBox="0 0 512 512" width="512" xmlns="http://www.w3.org/2000/svg"><g><path d="m450.72 190.92c-.14-4.9-.33-9.59-.59-15.39-.91-20.73-4.26-34.98-9.06-47.33-4.96-13.11-12.58-24.84-22.56-34.6-9.75-9.91-21.56-17.61-34.52-22.48-5.55-2.14-11.45-4-18.13-5.48-8.26-1.83-17.72-3.09-29.19-3.59-20.88-.99-27.51-1.22-80.46-1.22-52.96 0-59.59.23-80.39 1.14-20.73.92-34.98 4.27-47.32 9.07-13.11 4.95-24.84 12.58-34.6 22.56-9.9 9.76-17.6 21.57-22.48 34.53-4.8 12.42-8.15 26.6-9.06 47.33-.27 5.82-.49 10.54-.66 15.46-.44 12.72-.56 26.82-.56 65.02 0 38.21.12 52.31.53 65.01.16 4.9.36 9.6.61 15.4.91 20.73 4.27 34.98 9.07 47.33 4.95 13.11 12.65 24.85 22.55 34.6 9.76 9.91 21.57 17.61 34.52 22.49 12.42 4.8 26.59 8.15 47.32 9.07 15.87.69 23.49.99 49.73 1.09 8.15.04 18.11.05 30.66.05 7.89 0 14.75-.01 20.78-.02 34.47-.06 41.91-.35 59.61-1.12 11.33-.5 20.72-1.73 28.93-3.53 6.8-1.48 12.79-3.36 18.39-5.54 26.21-10.14 46.94-30.87 57.07-57.09 4.8-12.42 8.16-26.6 9.07-47.33.25-5.8.45-10.5.61-15.4.41-12.7.53-26.8.53-65.01 0-38.22-.04-52.32-.4-65.02z" fill="#4dd4f7"/><path d="m451.125 255.935c0 38.21-.12 52.31-.53 65.01-.16 4.9-.36 9.6-.61 15.4-.91 20.73-4.27 34.91-9.07 47.33-10.13 26.22-30.86 46.95-57.07 57.09-5.6 2.18-11.59 4.06-18.39 5.54 25.22-11.06 45.08-31.76 55.06-57.58 4.99-12.91 8.48-27.65 9.43-49.2.95-21.63 1.18-28.52 1.18-83.59 0-55.06-.08-61.95-1.03-83.58-.95-21.55-4.43-36.37-9.42-49.21-5.15-13.62-13.07-25.82-23.45-35.97-8.99-9.13-19.67-16.46-31.36-21.54 6.68 1.48 12.58 3.34 18.13 5.48 12.96 4.87 24.77 12.57 34.52 22.48 9.98 9.76 17.6 21.49 22.56 34.6 4.8 12.35 8.15 26.6 9.06 47.33.26 5.8.45 10.49.59 15.39.36 12.7.4 26.8.4 65.02z" fill="#00c2f3"/><g><path d="m191.941 24.942v105.59c0 9.64-7.81 17.44-17.44 17.44h-30.502l-18.28 26.35-18.28-26.35h-82.497c-9.64 0-17.44-7.8-17.44-17.44v-105.59c0-9.63 7.8-17.44 17.44-17.44h149.559c9.63 0 17.44 7.81 17.44 17.44z" fill="#fbdf63"/><path d="m191.941 24.942v105.59c0 9.64-7.81 17.44-17.44 17.44h-20c9.63 0 17.44-7.8 17.44-17.44v-105.59c0-9.63-7.81-17.44-17.44-17.44h20c9.63 0 17.44 7.81 17.44 17.44z" fill="#ffa402"/><path d="m128.463 53.567c-6.797-6.798-17.826-6.789-24.634.018l-4.109 4.109-4.109-4.109c-6.808-6.808-17.837-6.816-24.634-.018-6.797 6.797-6.789 17.826.018 24.634l28.724 28.724 28.724-28.724c6.809-6.808 6.818-17.837.02-24.634z" fill="#ff6b81"/></g><g><path d="m504.5 415.415v73.65c0 8.52-6.9 15.43-15.41 15.43h-146.039c-8.52 0-15.42-6.91-15.42-15.43v-120.69l41.59 31.62h119.869c8.51 0 15.41 6.9 15.41 15.42z" fill="#d9f0f4"/><path d="m504.5 415.415v73.65c0 8.52-6.9 15.43-15.41 15.43h-20c8.51 0 15.41-6.91 15.41-15.43v-73.65c0-8.52-6.9-15.42-15.41-15.42h20c8.51 0 15.41 6.9 15.41 15.42z" fill="#bae1e5"/></g><path d="m329.78 249.28-17.15 42.87h-35.72v158.81c-6.03.01-12.89.02-20.78.02-12.55 0-22.51-.01-30.66-.05v-158.78h-44.29v-42.87h44.29v-44.3c0-28.41 23.03-51.44 51.44-51.44h44.3v42.87h-27.15c-9.46 0-17.15-.89-17.15 8.57v44.3z" fill="#fff"/></g><g><path d="m226.465 68.37h.028c7.973-.029 17.64-.042 29.718-.042 52.573 0 59.452.231 80.137 1.214 17.782.784 31.643 3.428 45.006 8.596 11.862 4.465 22.864 11.632 31.816 20.726.034.034.068.068.103.103 9.187 8.978 16.179 19.706 20.808 31.954 5.135 13.208 7.776 27.069 8.564 44.944.177 4.025 3.497 7.17 7.487 7.17.111 0 .224-.002.336-.007 4.138-.183 7.345-3.686 7.163-7.823-.863-19.584-3.814-34.918-9.543-49.653-5.373-14.218-13.541-26.755-24.277-37.262-10.458-10.608-23.31-18.973-37.107-24.166-14.886-5.757-30.212-8.708-49.668-9.565-20.948-.995-27.907-1.229-80.823-1.229-12.101 0-21.785.013-29.773.042-4.142.016-7.488 3.386-7.473 7.527.014 4.131 3.369 7.471 7.498 7.471z"/><path d="m451.031 201.434c-.021 0-.042 0-.063 0-4.142.034-7.472 3.42-7.438 7.562.084 10.176.099 23.793.099 46.947 0 52.234-.217 59.161-1.136 80.078-.533 12.087-1.958 22.505-4.359 31.848-1.031 4.012 1.386 8.1 5.397 9.13.626.161 1.254.238 1.872.238 3.341 0 6.389-2.25 7.259-5.636 2.662-10.36 4.237-21.782 4.816-34.921.931-21.185 1.15-28.186 1.15-80.737 0-23.195-.016-36.844-.1-47.07-.033-4.122-3.384-7.439-7.497-7.439z"/><path d="m489.083 392.485h-117.336l-39.573-30.098c-2.268-1.725-5.318-2.017-7.872-.75-2.553 1.267-4.168 3.87-4.168 6.72v120.708c0 12.646 10.281 22.935 22.917 22.935h16.233c4.142 0 7.5-3.357 7.5-7.5s-3.358-7.5-7.5-7.5h-16.233c-4.366 0-7.917-3.56-7.917-7.935v-105.581l29.545 22.471c1.305.993 2.9 1.53 4.54 1.53h119.863c4.366 0 7.917 3.56 7.917 7.935v73.646c0 4.375-3.552 7.935-7.917 7.935h-95.304c-4.142 0-7.5 3.357-7.5 7.5s3.358 7.5 7.5 7.5h95.304c12.637-.001 22.918-10.289 22.918-22.936v-73.645c0-12.647-10.281-22.935-22.917-22.935z"/><path d="m368.445 477.057h99.94c4.142 0 7.5-3.357 7.5-7.5s-3.358-7.5-7.5-7.5h-99.94c-4.142 0-7.5 3.357-7.5 7.5s3.358 7.5 7.5 7.5z"/><path d="m368.445 443.044h89.947c4.142 0 7.5-3.357 7.5-7.5s-3.358-7.5-7.5-7.5h-89.947c-4.142 0-7.5 3.357-7.5 7.5s3.358 7.5 7.5 7.5z"/><path d="m119.557 178.657c1.401 2.021 3.704 3.226 6.163 3.226s4.761-1.205 6.163-3.226l16.042-23.129h26.577c13.751 0 24.939-11.19 24.939-24.946v-105.636c0-13.756-11.188-24.946-24.94-24.946h-95.104c-4.142 0-7.5 3.357-7.5 7.5s3.358 7.5 7.5 7.5h95.104c5.48 0 9.939 4.462 9.939 9.946v105.636c0 5.484-4.459 9.946-9.939 9.946h-30.501c-2.459 0-4.761 1.205-6.163 3.226l-12.117 17.47-12.117-17.47c-1.401-2.021-3.704-3.226-6.163-3.226h-82.5c-5.48 0-9.939-4.462-9.939-9.946v-105.636c-.001-5.484 4.458-9.946 9.938-9.946h19.913c4.142 0 7.5-3.357 7.5-7.5s-3.357-7.5-7.499-7.5h-19.914c-13.751 0-24.939 11.19-24.939 24.946v105.636c0 13.756 11.188 24.946 24.939 24.946h78.575z"/><path d="m94.417 112.264c1.406 1.407 3.314 2.198 5.304 2.198s3.898-.791 5.304-2.198l28.724-28.735c9.718-9.723 9.727-25.535.018-35.247-4.702-4.704-10.952-7.293-17.604-7.293-.006 0-.013 0-.019 0-6.105.005-11.877 2.191-16.424 6.189-4.546-3.998-10.318-6.185-16.423-6.189-.007 0-.013 0-.019 0-6.651 0-12.903 2.59-17.604 7.292-9.709 9.713-9.701 25.524.018 35.248zm-18.133-53.379c1.867-1.868 4.351-2.896 6.995-2.896h.008c2.65.002 5.144 1.037 7.021 2.916l4.109 4.11c1.407 1.407 3.315 2.197 5.304 2.197 1.99 0 3.898-.791 5.305-2.198l4.108-4.11c1.877-1.878 4.371-2.913 7.021-2.915h.008c2.644 0 5.128 1.029 6.995 2.896 3.864 3.866 3.855 10.164-.018 14.04l-23.419 23.429-23.419-23.429c-3.874-3.876-3.883-10.174-.018-14.04z"/><path d="m335.992 245.074c-1.395-2.061-3.722-3.295-6.21-3.295h-45.368v-36.794c0-.322.016-.574.036-.766 1.521-.365 4.939-.337 7.296-.32.758.006 1.53.012 2.315.012h27.147c4.142 0 7.5-3.357 7.5-7.5v-42.867c0-4.143-3.358-7.5-7.5-7.5h-44.294c-32.5 0-58.941 26.441-58.941 58.941v36.794h-36.794c-4.142 0-7.5 3.357-7.5 7.5v42.868c0 4.143 3.358 7.5 7.5 7.5h36.794v27.043c0 4.143 3.358 7.5 7.5 7.5s7.5-3.357 7.5-7.5v-34.543c0-4.143-3.358-7.5-7.5-7.5h-36.794v-27.868h36.794c4.142 0 7.5-3.357 7.5-7.5v-44.294c0-24.229 19.712-43.941 43.941-43.941h36.794v27.867h-19.647c-.745 0-1.479-.006-2.199-.012-6.601-.044-13.441-.104-18.211 4.629-2.812 2.79-4.237 6.645-4.237 11.457v44.294c0 4.143 3.358 7.5 7.5 7.5h41.79l-11.147 27.868h-30.643c-4.142 0-7.5 3.357-7.5 7.5v151.326c-4.014.004-8.408.006-13.277.006-8.953 0-16.574-.006-23.165-.021v-82.101c0-4.143-3.358-7.5-7.5-7.5s-7.5 3.357-7.5 7.5v82.04c-19.968-.128-27.707-.428-41.895-1.054-17.78-.783-31.642-3.427-45.009-8.594-11.863-4.467-22.865-11.634-31.816-20.728-.027-.027-.055-.055-.082-.082-9.24-9.101-16.239-19.836-20.826-31.975-5.137-13.214-7.779-27.075-8.567-44.943-.919-20.918-1.136-27.845-1.136-80.079 0-46.459.186-57.268.873-72.791.183-4.138-3.023-7.641-7.161-7.824-4.139-.188-7.641 3.024-7.824 7.162-.698 15.783-.887 26.704-.887 73.453 0 52.552.22 59.553 1.15 80.738.863 19.578 3.815 34.912 9.546 49.653 5.326 14.097 13.49 26.63 24.266 37.254 10.459 10.611 23.314 18.979 37.117 24.175 14.891 5.757 30.217 8.707 49.695 9.566 21.119.931 28.107 1.15 80.72 1.15 18.54 0 30.37-.027 39.558-.091 4.142-.029 7.476-3.41 7.448-7.552-.029-4.125-3.381-7.448-7.499-7.448-.018 0-.035 0-.053 0-3.312.023-6.979.041-11.177.055v-143.795h28.221c3.067 0 5.825-1.867 6.963-4.715l17.147-42.868c.925-2.31.644-4.928-.752-6.99z"/></g></svg>