<?xml version="1.0" encoding="UTF-8"?>
<svg xmlns="http://www.w3.org/2000/svg" viewBox="0 0 64 64" width="512" height="512"><g id="setting-configulation-money-dollar-currency"><path d="M61.2,27.02,54.1,25.6a22.85,22.85,0,0,0-1.949-4.693l4.02-6.03a1,1,0,0,0-.125-1.262L50.385,7.958a1,1,0,0,0-1.262-.125l-6.03,4.021A22.817,22.817,0,0,0,38.4,9.9L36.98,2.8A1,1,0,0,0,36,2H28a1,1,0,0,0-.98.8L25.6,9.9a22.817,22.817,0,0,0-4.693,1.95l-6.03-4.021a1,1,0,0,0-1.262.125L7.958,13.615a1,1,0,0,0-.125,1.262L11.846,20.9l-.049.081a13.165,13.165,0,0,0-1.974,4.639L2.8,27.02A1,1,0,0,0,2,28v8a1,1,0,0,0,.8.98l7.019,1.4A13.165,13.165,0,0,0,11.8,43.023l.049.081L7.833,49.123a1,1,0,0,0,.125,1.262l5.657,5.657a1,1,0,0,0,1.262.125l6.03-4.021A22.817,22.817,0,0,0,25.6,54.1l1.42,7.1A1,1,0,0,0,28,62h8a1,1,0,0,0,.98-.8l1.42-7.1a22.817,22.817,0,0,0,4.693-1.95l6.03,4.021a1,1,0,0,0,1.262-.125l5.657-5.657a1,1,0,0,0,.125-1.262l-4.02-6.03A22.85,22.85,0,0,0,54.1,38.4l7.1-1.42A1,1,0,0,0,62,36V28A1,1,0,0,0,61.2,27.02ZM60,35.18l-6.9,1.381a1,1,0,0,0-.772.729,20.837,20.837,0,0,1-2.217,5.337,1,1,0,0,0,.031,1.062l3.907,5.861-4.5,4.5L43.688,50.14a1,1,0,0,0-1.061-.03,20.887,20.887,0,0,1-5.337,2.218,1,1,0,0,0-.729.771L35.181,60H28.819l-.609-3.048c-.879-4.391-.937-4.725-1.665-4.668a20.842,20.842,0,0,1-5.172-2.174,1,1,0,0,0-1.061.03l-5.863,3.908-4.5-4.5,3.907-5.861a1,1,0,0,0,.031-1.062l-.379-.634A10.62,10.62,0,0,1,11.7,37.422a1,1,0,0,0-.8-.861L4,35.18V28.82l6.9-1.381a1,1,0,0,0,.8-.861,10.62,10.62,0,0,1,1.813-4.571l.379-.634a1,1,0,0,0-.031-1.062L9.952,14.45l4.5-4.5,5.863,3.908a1,1,0,0,0,1.061.03,20.887,20.887,0,0,1,5.337-2.218,1,1,0,0,0,.729-.771L28.819,4h6.362l.609,3.048c.878,4.391.924,4.711,1.665,4.668a20.842,20.842,0,0,1,5.172,2.174,1,1,0,0,0,1.061-.03l5.863-3.908,4.5,4.5-3.907,5.861a1,1,0,0,0-.031,1.062,20.837,20.837,0,0,1,2.217,5.337,1,1,0,0,0,.772.729L60,28.82Z"/><path d="M32,16A16,16,0,1,0,48,32,16.019,16.019,0,0,0,32,16Zm0,30A14,14,0,1,1,46,32,14.015,14.015,0,0,1,32,46Z"/><path d="M30,26h4a2,2,0,0,1,2,2h2a4,4,0,0,0-4-4H33V22H31v2H30a4,4,0,0,0-4,4v1a4,4,0,0,0,4,4h4a2,2,0,0,1,2,2v1a2,2,0,0,1-2,2H30a2,2,0,0,1-2-2H26a4,4,0,0,0,4,4h1v2h2V40h1a4,4,0,0,0,4-4V35a4,4,0,0,0-4-4H30a2,2,0,0,1-2-2V28A2,2,0,0,1,30,26Z"/></g></svg>
