<svg id="Capa_1" enable-background="new 0 0 512 512" height="512" viewBox="0 0 512 512" width="512" xmlns="http://www.w3.org/2000/svg" xmlns:xlink="http://www.w3.org/1999/xlink"><linearGradient id="SVGID_1_" gradientUnits="userSpaceOnUse" x1="256" x2="256" y1="481" y2="31"><stop offset="0" stop-color="#a93aff"/><stop offset="1" stop-color="#ff81ff"/></linearGradient><g><g><path d="m166 361h270c6.429 0 12.143-4.097 14.207-10.186l61-180c1.552-4.579.801-9.625-2.016-13.555s-7.356-6.259-12.191-6.259h-380.188l-36.582-109.744c-2.042-6.125-7.773-10.256-14.23-10.256h-51c-8.284 0-15 6.716-15 15s6.716 15 15 15h40.188c2.554 7.661 91.231 273.693 91.459 274.377-15.153 7.249-25.647 22.734-25.647 40.623 0 24.813 20.187 44.99 45 44.99h17.58c-1.665 4.694-2.58 9.751-2.58 15.01 0 24.813 20.187 45 45 45s45-20.187 45-45c0-5.258-.915-10.305-2.58-15.01h95.161c-1.665 4.705-2.58 9.751-2.58 15.01 0 24.813 20.187 45 45 45s45-20.187 45-45-20.187-45-45-45h-240.001c-8.271 0-15-6.729-15-15s6.729-15 15-15zm240 60c8.271 0 15 6.729 15 15s-6.729 15-15 15-15-6.729-15-15 6.729-15 15-15zm-180 0c8.271 0 15 6.729 15 15s-6.729 15-15 15-15-6.729-15-15 6.729-15 15-15zm-99.188-240h349.267l-50.833 150h-248.434zm245.55 119.552c8.002 1.999 16.172-2.841 18.19-10.914l15-60c2.009-8.037-2.877-16.181-10.914-18.19-8.037-2.007-16.181 2.877-18.19 10.914l-15 60c-2.01 8.037 2.877 16.181 10.914 18.19zm-160.914-10.914c2.018 8.071 10.185 12.915 18.19 10.914 8.037-2.009 12.923-10.153 10.914-18.19l-15-60c-2.009-8.037-10.154-12.924-18.19-10.914-8.037 2.009-12.923 10.153-10.914 18.19zm89.552 11.362c8.284 0 15-6.716 15-15v-60c0-8.284-6.716-15-15-15s-15 6.716-15 15v60c0 8.284 6.716 15 15 15z" fill="url(#SVGID_1_)"/></g></g></svg>