<svg id="Capa_1" enable-background="new 0 0 512 512" height="512" viewBox="0 0 512 512" width="512" xmlns="http://www.w3.org/2000/svg"><g><path d="m510.29 208.982-58.5-147.359-125.561-61.623h-139.054l-125.893 61.196-59.572 147.861 98.496 51.24v251.703h311.534l.104-250.731zm-98.432 18.503.021-51.184c.011-26.349 8.565-52.414 24.091-73.684l36.741 92.548zm-199.331-197.655h87.049v7.498c0 23.999-19.525 43.525-43.525 43.525-23.999 0-43.525-19.525-43.525-43.525v-7.498zm-173.03 165.26 37.308-92.6c15.302 21.349 23.4 46.471 23.4 72.788v51.394zm342.426 287.08h-251.888v-306.892c0-33.31-10.449-65.088-30.217-91.899l-4.205-5.703 87.084-42.332v1.984c0 40.448 32.907 73.355 73.355 73.355s73.355-32.907 73.355-73.355v-2.54l87.821 43.101-3.709 4.891c-20.279 26.74-31.455 59.949-31.469 93.509z"/><path d="m310.062 240.449-15.419-11.559c4.089-6.779 6.447-14.715 6.447-23.192 0-24.834-20.204-45.038-45.038-45.038s-45.038 20.204-45.038 45.038c0 8.477 2.357 16.413 6.447 23.192l-15.419 11.559c-14.773 11.075-23.593 28.709-23.593 47.172v59.192h155.207v-59.192c-.001-18.463-8.821-36.097-23.594-47.172zm-54.01-49.959c8.386 0 15.208 6.822 15.208 15.208s-6.822 15.208-15.208 15.208-15.208-6.822-15.208-15.208 6.822-15.208 15.208-15.208zm47.773 126.494h-95.547v-29.362c0-9.121 4.357-17.833 11.655-23.305l18.117-13.581h36.002l18.117 13.581c7.298 5.471 11.655 14.183 11.655 23.305v29.362z"/><path d="m203.836 382.399h104.432v29.83h-104.432z"/></g></svg>